<?xml version="1.0" encoding="UTF-8"?>
<svg version="1.1" xmlns="http://www.w3.org/2000/svg" width="107" height="118">
<path d="M0 0 C35.31 0 70.62 0 107 0 C107 38.94 107 77.88 107 118 C71.69 118 36.38 118 0 118 C0 79.06 0 40.12 0 0 Z " fill="#FBFEFC" transform="translate(0,0)"/>
<path d="M0 0 C3.50177431 1.22632987 6.56894273 1.31363036 9.9296875 -0.26171875 C10.5896875 -0.61234375 11.2496875 -0.96296875 11.9296875 -1.32421875 C20.76037132 -3.12329637 31.67146208 -4.02607084 39.6796875 0.7109375 C42.5445972 2.77340721 43.82490358 4.21854233 44.6171875 7.67578125 C43.64782339 11.90573372 42.56043752 13.25528124 38.9296875 15.67578125 C29.42419735 17.51297683 19.58660729 13.92392303 11.0546875 9.92578125 C4.38851076 7.25931056 -1.01816862 9.044217 -7.3203125 11.61328125 C-8.72129429 12.16421478 -10.1223337 12.71500182 -11.5234375 13.265625 C-12.69390625 13.73097656 -13.864375 14.19632813 -15.0703125 14.67578125 C-19.69512854 16.2173866 -24.24093153 16.17462449 -29.0703125 15.67578125 C-31.7578125 14.17578125 -31.7578125 14.17578125 -33.0703125 11.67578125 C-33.94848543 6.64624539 -33.94848543 6.64624539 -33.0703125 3.67578125 C-25.47651122 -5.20178586 -9.83554188 -3.80091454 0 0 Z " fill="#12B968" transform="translate(50.0703125,72.32421875)"/>
<path d="M0 0 C1.51400391 0.01740234 1.51400391 0.01740234 3.05859375 0.03515625 C4.07050781 0.04417969 5.08242187 0.05320312 6.125 0.0625 C7.29869141 0.07990234 7.29869141 0.07990234 8.49609375 0.09765625 C8.49609375 1.41765625 8.49609375 2.73765625 8.49609375 4.09765625 C6.18609375 4.09765625 3.87609375 4.09765625 1.49609375 4.09765625 C1.49609375 4.75765625 1.49609375 5.41765625 1.49609375 6.09765625 C3.80609375 6.09765625 6.11609375 6.09765625 8.49609375 6.09765625 C8.82609375 6.75765625 9.15609375 7.41765625 9.49609375 8.09765625 C10.15609375 7.76765625 10.81609375 7.43765625 11.49609375 7.09765625 C12.15381803 4.06831134 12.15381803 4.06831134 12.49609375 1.09765625 C14.74609375 0.78515625 14.74609375 0.78515625 17.49609375 1.09765625 C19.80859375 3.59765625 19.80859375 3.59765625 21.49609375 6.09765625 C21.82609375 4.44765625 22.15609375 2.79765625 22.49609375 1.09765625 C23.81609375 1.09765625 25.13609375 1.09765625 26.49609375 1.09765625 C26.52294787 3.41009417 26.54242216 5.72261895 26.55859375 8.03515625 C26.57019531 9.32292969 26.58179688 10.61070313 26.59375 11.9375 C26.49609375 15.09765625 26.49609375 15.09765625 25.49609375 16.09765625 C24.08384329 16.19052885 22.66700441 16.21512397 21.25170898 16.21118164 C20.35085068 16.21110611 19.44999237 16.21103058 18.52183533 16.21095276 C17.54267654 16.20579147 16.56351776 16.20063019 15.5546875 16.1953125 C14.55728043 16.19389755 13.55987335 16.1924826 12.53224182 16.19102478 C9.33266251 16.18540739 6.13315206 16.17285196 2.93359375 16.16015625 C0.7701833 16.15514349 -1.39322824 16.1505802 -3.55664062 16.14648438 C-8.8724195 16.13543232 -14.18815796 16.11867729 -19.50390625 16.09765625 C-19.65625 13.73046875 -19.65625 13.73046875 -19.50390625 11.09765625 C-17.06640625 8.97265625 -17.06640625 8.97265625 -14.50390625 7.09765625 C-14.17390625 6.10765625 -13.84390625 5.11765625 -13.50390625 4.09765625 C-15.15390625 4.09765625 -16.80390625 4.09765625 -18.50390625 4.09765625 C-18.50390625 3.10765625 -18.50390625 2.11765625 -18.50390625 1.09765625 C-14.87390625 1.09765625 -11.24390625 1.09765625 -7.50390625 1.09765625 C-8.53857633 5.23633655 -10.07340161 7.64790773 -12.50390625 11.09765625 C-10.1709585 11.14007348 -7.83688058 11.13858562 -5.50390625 11.09765625 C-3.93124831 9.52499831 -4.19632648 7.76925596 -4.00390625 5.59765625 C-3.52007619 0.13728846 -3.52007619 0.13728846 0 0 Z " fill="#FCF9E0" transform="translate(78.50390625,101.90234375)"/>
<path d="M0 0 C3.99432781 1.62061033 6.79558321 4.39339173 9.8125 7.375 C10.5849707 8.09816406 10.5849707 8.09816406 11.37304688 8.8359375 C12.83203125 10.2734375 12.83203125 10.2734375 15 13 C14.68666694 16.19552483 13.54354664 17.82098642 11.27734375 20.015625 C10.73916016 20.54414062 10.20097656 21.07265625 9.64648438 21.6171875 C9.08251953 22.15601562 8.51855469 22.69484375 7.9375 23.25 C7.36966797 23.80429687 6.80183594 24.35859375 6.21679688 24.9296875 C4.81787531 26.29334214 3.40980886 27.64760417 2 29 C-1.99432781 27.37938967 -4.79558321 24.60660827 -7.8125 21.625 C-8.32748047 21.14289062 -8.84246094 20.66078125 -9.37304688 20.1640625 C-10.83203125 18.7265625 -10.83203125 18.7265625 -13 16 C-12.68666694 12.80447517 -11.54354664 11.17901358 -9.27734375 8.984375 C-8.73916016 8.45585938 -8.20097656 7.92734375 -7.64648438 7.3828125 C-7.08251953 6.84398437 -6.51855469 6.30515625 -5.9375 5.75 C-5.36966797 5.19570313 -4.80183594 4.64140625 -4.21679688 4.0703125 C-2.81787531 2.70665786 -1.40980886 1.35239583 0 0 Z " fill="#F3FBF9" transform="translate(54,34)"/>
<path d="M0 0 C4.49240346 1.68911513 7.63251046 5.77997704 10.96240234 9.12084961 C11.76355469 9.89364258 12.56470703 10.66643555 13.39013672 11.46264648 C14.14230469 12.21223633 14.89447266 12.96182617 15.66943359 13.73413086 C16.70741089 14.76147339 16.70741089 14.76147339 17.76635742 15.80957031 C19.14990234 17.80834961 19.14990234 17.80834961 19.0949707 19.80395508 C17.05402482 24.13259515 13.23988838 27.27258262 9.89990234 30.62084961 C9.13548828 31.42200195 8.37107422 32.2231543 7.58349609 33.04858398 C6.83712891 33.80075195 6.09076172 34.55291992 5.32177734 35.32788086 C4.64211914 36.01986572 3.96246094 36.71185059 3.26220703 37.42480469 C1.14990234 38.80834961 1.14990234 38.80834961 -1.34790039 38.7644043 C-4.32197533 37.62805173 -5.84355341 36.27310895 -8.05712891 33.99194336 C-8.80800781 33.22817383 -9.55888672 32.4644043 -10.33251953 31.67749023 C-11.10144531 30.87504883 -11.87037109 30.07260742 -12.66259766 29.24584961 C-13.45085938 28.43954102 -14.23912109 27.63323242 -15.05126953 26.80249023 C-16.99352682 24.81314792 -18.92583427 22.8150769 -20.85009766 20.80834961 C-19.24582885 16.35448917 -17.66003171 14.64364937 -13.85009766 11.80834961 C-11.54075768 9.55978174 -9.28386864 7.28716228 -7.11962891 4.89819336 C-6.51505859 4.24979492 -5.91048828 3.60139648 -5.28759766 2.93334961 C-4.72943359 2.31717773 -4.17126953 1.70100586 -3.59619141 1.06616211 C-1.85009766 -0.19165039 -1.85009766 -0.19165039 0 0 Z M-8.53759766 11.05834961 C-9.46668945 11.93813477 -9.46668945 11.93813477 -10.41455078 12.83569336 C-10.99527344 13.40932617 -11.57599609 13.98295898 -12.17431641 14.57397461 C-12.71145264 15.09765625 -13.24858887 15.62133789 -13.80200195 16.16088867 C-15.05702295 17.76805965 -15.05702295 17.76805965 -14.6875 19.82202148 C-13.76874985 22.00130756 -12.82050302 23.1843781 -11.12744141 24.82397461 C-10.32016602 25.61674805 -10.32016602 25.61674805 -9.49658203 26.42553711 C-8.93261719 26.96436523 -8.36865234 27.50319336 -7.78759766 28.05834961 C-7.21976563 28.61264648 -6.65193359 29.16694336 -6.06689453 29.73803711 C-4.66797296 31.10169175 -3.25990652 32.45595378 -1.85009766 33.80834961 C2.14423015 32.18773928 4.94548555 29.41495788 7.96240234 26.43334961 C8.47738281 25.95124023 8.99236328 25.46913086 9.52294922 24.97241211 C11.18303907 23.39463678 11.18303907 23.39463678 13.14990234 20.80834961 C12.83308226 17.6487115 11.71259065 15.9941359 9.49755859 13.79272461 C8.70381836 12.99995117 8.70381836 12.99995117 7.89404297 12.19116211 C7.33910156 11.65233398 6.78416016 11.11350586 6.21240234 10.55834961 C5.66132812 10.00405273 5.11025391 9.44975586 4.54248047 8.87866211 C-1.68701437 2.73242905 -3.13284931 5.70518423 -8.53759766 11.05834961 Z " fill="#1BBC6F" transform="translate(55.85009765625,29.191650390625)"/>
<path d="M0 0 C3.1875 0.4375 3.1875 0.4375 6.0625 2.375 C8.91244113 6.48226811 9.0076326 9.5784348 8.1875 14.4375 C6.56349816 18.07217079 5.52636956 19.21158696 2.1875 21.4375 C-0.25 21.875 -0.25 21.875 -2.8125 21.4375 C-6.05237686 18.64760604 -7.11084027 16.05423847 -7.75 11.9375 C-8.04557236 7.90025029 -7.4351165 5.64292017 -4.8125 2.4375 C-2.8125 0.4375 -2.8125 0.4375 0 0 Z " fill="#3EC887" transform="translate(54.8125,2.5625)"/>
<path d="M0 0 C0.70769531 -0.01224609 1.41539063 -0.02449219 2.14453125 -0.03710938 C6.25932929 -0.04860322 9.42660538 0.3528062 13.125 2.1875 C13.125 2.8475 13.125 3.5075 13.125 4.1875 C11.75214844 4.71150391 11.75214844 4.71150391 10.3515625 5.24609375 C9.16304687 5.70113281 7.97453125 6.15617187 6.75 6.625 C5.56664063 7.07746094 4.38328125 7.52992187 3.1640625 7.99609375 C0.26463807 9.08021912 0.26463807 9.08021912 -1.875 10.1875 C-3.89396864 10.2837762 -5.9162429 10.31731825 -7.9375 10.3125 C-9.56365234 10.31636719 -9.56365234 10.31636719 -11.22265625 10.3203125 C-13.875 10.1875 -13.875 10.1875 -14.875 9.1875 C-15.1875 6.8125 -15.1875 6.8125 -14.875 4.1875 C-10.49261561 -0.04376769 -5.78332148 0.0052102 0 0 Z " fill="#E9F9F3" transform="translate(35.875,73.8125)"/>
<path d="M0 0 C1 1 1 1 1.0625 3.5625 C1.041875 4.366875 1.02125 5.17125 1 6 C-3.87840286 8.43920143 -9.23556813 6.85775682 -14.15625 5.27148438 C-14.8471875 5.03751953 -15.538125 4.80355469 -16.25 4.5625 C-16.95640625 4.33240234 -17.6628125 4.10230469 -18.390625 3.86523438 C-20.26365281 3.25330768 -22.13210856 2.6274305 -24 2 C-24.99 1.67 -25.98 1.34 -27 1 C-27 0.34 -27 -0.32 -27 -1 C-18.40537741 -3.69635219 -7.78965637 -5.40948359 0 0 Z " fill="#EFFBF7" transform="translate(88,77)"/>
<path d="M0 0 C1.32 0 2.64 0 4 0 C6.25 2.5 6.25 2.5 8 5 C8.33 3.35 8.66 1.7 9 0 C10.32 0 11.64 0 13 0 C13 4.62 13 9.24 13 14 C11.68 14 10.36 14 9 14 C7.3125 11.5625 7.3125 11.5625 6 9 C5.67 8.67 5.34 8.34 5 8 C4.67 9.98 4.34 11.96 4 14 C2.68 14 1.36 14 0 14 C0 9.38 0 4.76 0 0 Z " fill="#F9E37E" transform="translate(92,103)"/>
<path d="M0 0 C3.63 0 7.26 0 11 0 C11 0.99 11 1.98 11 3 C8.69 3 6.38 3 4 3 C4 3.66 4 4.32 4 5 C5.98 5 7.96 5 10 5 C10 5.99 10 6.98 10 8 C8.02 8 6.04 8 4 8 C4 8.66 4 9.32 4 10 C6.31 10 8.62 10 11 10 C11 11.32 11 12.64 11 14 C7.37 14 3.74 14 0 14 C0 9.38 0 4.76 0 0 Z " fill="#3BBF80" transform="translate(19,103)"/>
<path d="M0 0 C0 0.66 0 1.32 0 2 C1.32 2.66 2.64 3.32 4 4 C1.36 4.33 -1.28 4.66 -4 5 C-4 5.66 -4 6.32 -4 7 C-2.081875 7.4021875 -2.081875 7.4021875 -0.125 7.8125 C5.00062417 8.9451896 9.99289488 10.43201301 15 12 C12.07175348 12.97608217 10.04386724 13.08226668 7 13 C7.99 13.99 8.98 14.98 10 16 C0.45780464 13.29285806 0.45780464 13.29285806 -3.8125 11.375 C-6.60197043 10.17169903 -9.01221691 9.45269441 -12 9 C-4.8 0 -4.8 0 0 0 Z " fill="#1ABD6F" transform="translate(65,71)"/>
<path d="M0 0 C3.63 0 7.26 0 11 0 C9.96532992 4.1386803 8.43050464 6.55025148 6 10 C7.98 10 9.96 10 12 10 C12 11.32 12 12.64 12 14 C8.04 14 4.08 14 0 14 C1.06122449 8.69387755 1.06122449 8.69387755 4 6 C4.33 5.01 4.66 4.02 5 3 C3.35 3 1.7 3 0 3 C0 2.01 0 1.02 0 0 Z " fill="#F7E281" transform="translate(60,103)"/>
<path d="M0 0 C0 0.33 0 0.66 0 1 C3.3 1.33 6.6 1.66 10 2 C10 2.33 10 2.66 10 3 C8.69675781 3.05607422 8.69675781 3.05607422 7.3671875 3.11328125 C-1.28042899 3.52448963 -1.28042899 3.52448963 -9 7 C-9 8.65 -9 10.3 -9 12 C-6.36 12.33 -3.72 12.66 -1 13 C-1 13.33 -1 13.66 -1 14 C-3.64 14 -6.28 14 -9 14 C-9 14.66 -9 15.32 -9 16 C-8.01 16.33 -7.02 16.66 -6 17 C-8.875 16.6875 -8.875 16.6875 -12 16 C-14.10473363 12.84289956 -14.60551504 10.79029657 -14.5078125 7.0078125 C-13.68815797 3.76702458 -11.79507873 2.52329804 -9.0234375 0.83203125 C-5.96435524 -0.42585392 -3.24697463 -0.33132394 0 0 Z " fill="#21BC72" transform="translate(31,71)"/>
<path d="M0 0 C1.670625 0.061875 1.670625 0.061875 3.375 0.125 C3.705 1.115 4.035 2.105 4.375 3.125 C2.725 3.455 1.075 3.785 -0.625 4.125 C0.2 4.516875 1.025 4.90875 1.875 5.3125 C2.7 5.910625 3.525 6.50875 4.375 7.125 C4.75 9.75 4.75 9.75 4.375 12.125 C2.47614904 14.02385096 -0.19747903 13.24867506 -2.71484375 13.2578125 C-4.625 13.125 -4.625 13.125 -6.625 12.125 C-6.295 11.135 -5.965 10.145 -5.625 9.125 C-2.655 9.62 -2.655 9.62 0.375 10.125 C0.375 9.465 0.375 8.805 0.375 8.125 C-1.275 7.795 -2.925 7.465 -4.625 7.125 C-5.25 4.75 -5.25 4.75 -5.625 2.125 C-3.625 0.125 -3.625 0.125 0 0 Z " fill="#25B673" transform="translate(40.625,102.875)"/>
<path d="M0 0 C1.875 1.8125 1.875 1.8125 3 4 C3 4.99 3 5.98 3 7 C2.4225 6.690625 1.845 6.38125 1.25 6.0625 C-0.84904107 5.07128616 -2.75074138 4.52451199 -5 4 C-5.13277344 4.91523437 -5.26554687 5.83046875 -5.40234375 6.7734375 C-5.57894531 7.96195313 -5.75554688 9.15046875 -5.9375 10.375 C-6.11152344 11.55835938 -6.28554688 12.74171875 -6.46484375 13.9609375 C-7 17 -7 17 -8 19 C-10.91452537 14.45334042 -11.39350501 11.25171245 -10.5703125 6.05859375 C-9.02034053 0.46383191 -5.46363741 -0.92998084 0 0 Z " fill="#14BB6B" transform="translate(58,3)"/>
<path d="M0 0 C3.79208979 0.41249832 5.60384719 2.09038587 8 5 C8 5.99 8 6.98 8 8 C6.88625 7.7525 6.88625 7.7525 5.75 7.5 C2.80993422 6.88074304 2.80993422 6.88074304 -1 7 C-3.38302838 8.97327892 -3.38302838 8.97327892 -5.625 11.5 C-7.04891081 13.03271462 -8.50056274 14.54108807 -10 16 C-10.66 16 -11.32 16 -12 16 C-9.09656596 9.70922626 -5.25112575 4.48533658 0 0 Z " fill="#08BA63" transform="translate(54,29)"/>
<path d="M0 0 C2.97 0 5.94 0 9 0 C9 0.66 9 1.32 9 2 C7.02 2 5.04 2 3 2 C3 2.99 3 3.98 3 5 C4.98 5 6.96 5 9 5 C9 5.99 9 6.98 9 8 C7.02 8 5.04 8 3 8 C3 8.99 3 9.98 3 11 C5.31 11 7.62 11 10 11 C10 11.66 10 12.32 10 13 C6.7 13 3.4 13 0 13 C0 8.71 0 4.42 0 0 Z " fill="#F7DE70" transform="translate(77,103)"/>
<path d="M0 0 C0.66 0.33 1.32 0.66 2 1 C2 1.99 2 2.98 2 4 C-0.31 4 -2.62 4 -5 4 C-5 5.65 -5 7.3 -5 9 C-2.69 9 -0.38 9 2 9 C1.67 10.32 1.34 11.64 1 13 C-5.25925926 13.48148148 -5.25925926 13.48148148 -8.5 11.375 C-10 9 -10 9 -9.9375 5.9375 C-8.10285169 0.1889353 -5.92777041 -0.5044911 0 0 Z " fill="#21B872" transform="translate(12,103)"/>
<path d="M0 0 C0.33 0 0.66 0 1 0 C1.33 2.31 1.66 4.62 2 7 C-2.01488067 10.55415665 -5.04741127 10.42965362 -10.2265625 10.3046875 C-14.00334656 9.88977319 -16.66222173 8.78014841 -20 7 C-19.67 6.34 -19.34 5.68 -19 5 C-13.06 5.33 -7.12 5.66 -1 6 C-0.67 4.02 -0.34 2.04 0 0 Z " fill="#1CBA6F" transform="translate(91,78)"/>
<path d="M0 0 C1.65 0.33 3.3 0.66 5 1 C6.25 8.625 6.25 8.625 4 12 C2.35 11.67 0.7 11.34 -1 11 C-1.0270043 9.54176788 -1.04639787 8.08339325 -1.0625 6.625 C-1.07410156 5.81289062 -1.08570313 5.00078125 -1.09765625 4.1640625 C-1 2 -1 2 0 0 Z " fill="#EFFBF7" transform="translate(53,7)"/>
<path d="M0 0 C1.32 0 2.64 0 4 0 C4 4.62 4 9.24 4 14 C2.68 14 1.36 14 0 14 C0 9.38 0 4.76 0 0 Z " fill="#32BA7B" transform="translate(50,103)"/>
<path d="M0 0 C0.33 0 0.66 0 1 0 C1 4.29 1 8.58 1 13 C0.34 12.34 -0.32 11.68 -1 11 C-1.99 11.66 -2.98 12.32 -4 13 C-4 12.34 -4 11.68 -4 11 C-6.31 11 -8.62 11 -11 11 C-11 10.01 -11 9.02 -11 8 C-9.02 8 -7.04 8 -5 8 C-4.67 7.01 -4.34 6.02 -4 5 C-3.67 5.66 -3.34 6.32 -3 7 C-2.34 6.67 -1.68 6.34 -1 6 C-0.34227572 2.97065509 -0.34227572 2.97065509 0 0 Z " fill="#FDFCE8" transform="translate(91,103)"/>
<path d="M0 0 C0.66 1.32 1.32 2.64 2 4 C3.10338257 5.85353452 3.10338257 5.85353452 5 7 C8.54199641 7.41673207 8.54199641 7.41673207 12 7 C12.66 6.34 13.32 5.68 14 5 C13.125 8.875 13.125 8.875 12 10 C9.81360547 10.07258946 7.62499611 10.08373783 5.4375 10.0625 C3.64119141 10.04896484 3.64119141 10.04896484 1.80859375 10.03515625 C0.88175781 10.02355469 -0.04507813 10.01195313 -1 10 C-0.67 6.7 -0.34 3.4 0 0 Z " fill="#E4F7EF" transform="translate(1,108)"/>
<path d="M0 0 C0.33 0 0.66 0 1 0 C1.33 2.31 1.66 4.62 2 7 C-3.61 7 -9.22 7 -15 7 C-15 5.35 -15 3.7 -15 2 C-14.67 2.66 -14.34 3.32 -14 4 C-13.34 4 -12.68 4 -12 4 C-11.67 3.34 -11.34 2.68 -11 2 C-11 2.66 -11 3.32 -11 4 C-7.7 4 -4.4 4 -1 4 C-0.67 2.68 -0.34 1.36 0 0 Z " fill="#E2F6EE" transform="translate(45,111)"/>
<path d="M0 0 C0.33 0.99 0.66 1.98 1 3 C-1.31 3 -3.62 3 -6 3 C-6 3.66 -6 4.32 -6 5 C-4.02 5 -2.04 5 0 5 C0 5.99 0 6.98 0 8 C-1.98 8 -3.96 8 -6 8 C-6 8.66 -6 9.32 -6 10 C-3.69 10 -1.38 10 1 10 C1 10.33 1 10.66 1 11 C-1.64 11 -4.28 11 -7 11 C-8.125 4.25 -8.125 4.25 -7 2 C-4.69 2 -2.38 2 0 2 C0 1.34 0 0.68 0 0 Z " fill="#42C487" transform="translate(29,103)"/>
<path d="M0 0 C1.99996498 1.65168612 2.91796488 2.52102077 3.36328125 5.12109375 C3.34652344 5.88550781 3.32976563 6.64992188 3.3125 7.4375 C3.30863281 8.19933594 3.30476563 8.96117187 3.30078125 9.74609375 C2.9739386 12.19529127 2.21954601 13.86700917 1 16 C-1.02350324 12.96474514 -1.32124018 11.80573798 -1.625 8.3125 C-1.69976562 7.50425781 -1.77453125 6.69601563 -1.8515625 5.86328125 C-1.90054688 5.24839844 -1.94953125 4.63351563 -2 4 C-1.01 4.33 -0.02 4.66 1 5 C0.67 3.35 0.34 1.7 0 0 Z " fill="#24BC74" transform="translate(60,5)"/>
<path d="M0 0 C0.33 0 0.66 0 1 0 C1.38063221 2.3260857 1.71269945 4.66055264 2 7 C0.12175109 8.87824891 -3.03935276 8.39102397 -5.5625 8.5625 C-6.76003906 8.64628906 -7.95757812 8.73007813 -9.19140625 8.81640625 C-10.11824219 8.87699219 -11.04507813 8.93757813 -12 9 C-12.33 8.34 -12.66 7.68 -13 7 C-7.06 6.505 -7.06 6.505 -1 6 C-0.67 4.02 -0.34 2.04 0 0 Z " fill="#07BB63" transform="translate(91,78)"/>
<path d="M0 0 C0 0.99 0 1.98 0 3 C-0.66 3.66 -1.32 4.32 -2 5 C-2 5.99 -2 6.98 -2 8 C-4.375 10.6875 -4.375 10.6875 -7 13 C-7.66 13 -8.32 13 -9 13 C-6.76869284 8.16550114 -3.9810131 3.58291179 0 0 Z " fill="#0CB661" transform="translate(51,32)"/>
<path d="M0 0 C0.66 0.99 1.32 1.98 2 3 C1.50628906 3.38671875 1.01257812 3.7734375 0.50390625 4.171875 C-0.13675781 4.69265625 -0.77742188 5.2134375 -1.4375 5.75 C-2.07558594 6.26046875 -2.71367188 6.7709375 -3.37109375 7.296875 C-5.18810554 9.19667629 -5.60423197 10.43586908 -6 13 C-6.66 12.34 -7.32 11.68 -8 11 C-7.70831244 7.38008264 -6.00384429 5.67636187 -3.4375 3.25 C-2.79683594 2.63640625 -2.15617187 2.0228125 -1.49609375 1.390625 C-1.00238281 0.93171875 -0.50867187 0.4728125 0 0 Z " fill="#CDF4E4" transform="translate(49,39)"/>
<path d="M0 0 C2.31 0 4.62 0 7 0 C7 0.33 7 0.66 7 1 C10.3 1.33 13.6 1.66 17 2 C17 2.33 17 2.66 17 3 C11.39 3 5.78 3 0 3 C0 2.01 0 1.02 0 0 Z " fill="#29C077" transform="translate(24,71)"/>
<path d="M0 0 C4.455 0.99 4.455 0.99 9 2 C6.37801226 4.15377564 4.35595828 5.40072174 1 6 C1 5.34 1 4.68 1 4 C0.34 3.67 -0.32 3.34 -1 3 C-0.67 2.01 -0.34 1.02 0 0 Z " fill="#1CBD6D" transform="translate(48,72)"/>
<path d="M0 0 C1.60379341 -0.05416188 3.20811406 -0.09286638 4.8125 -0.125 C5.70582031 -0.14820312 6.59914063 -0.17140625 7.51953125 -0.1953125 C10 0 10 0 13 2 C8.38 2.33 3.76 2.66 -1 3 C-0.67 2.01 -0.34 1.02 0 0 Z " fill="#02B85F" transform="translate(65,71)"/>
<path d="M0 0 C0.66 0.66 1.32 1.32 2 2 C-0.64 2 -3.28 2 -6 2 C-5.01 2.99 -4.02 3.98 -3 5 C-6.3 4.01 -9.6 3.02 -13 2 C-13 1.67 -13 1.34 -13 1 C-8.57117061 -0.10720735 -4.53942698 -0.22325051 0 0 Z " fill="#4ECA90" transform="translate(78,82)"/>
<path d="M0 0 C0.99 0.33 1.98 0.66 3 1 C3 2.98 3 4.96 3 7 C2.01 7.495 2.01 7.495 1 8 C0.67 5.36 0.34 2.72 0 0 Z M-1 2 C0.125 5.75 0.125 5.75 -1 8 C-1.99 7.67 -2.98 7.34 -4 7 C-3.34 7 -2.68 7 -2 7 C-1.67 5.35 -1.34 3.7 -1 2 Z " fill="#38C281" transform="translate(91,76)"/>
<path d="M0 0 C0.66666667 2.66666667 1.33333333 5.33333333 2 8 C1.67 7.34 1.34 6.68 1 6 C-1.31 6 -3.62 6 -6 6 C-6 5.01 -6 4.02 -6 3 C-4.02 3 -2.04 3 0 3 C0 2.01 0 1.02 0 0 Z " fill="#FBF6CD" transform="translate(86,108)"/>
<path d="M0 0 C0 0.66 0 1.32 0 2 C1.32 2.66 2.64 3.32 4 4 C-1.37305699 4.96891192 -1.37305699 4.96891192 -4 5 C-6 3.5625 -6 3.5625 -7 2 C-4.35261084 0.5393715 -3.10551666 0 0 0 Z " fill="#2AC17A" transform="translate(65,71)"/>
<path d="M0 0 C0.33 0 0.66 0 1 0 C1 1.65 1 3.3 1 5 C-4.75 5.125 -4.75 5.125 -7 4 C-6.67 3.01 -6.34 2.02 -6 1 C-3.03 1.495 -3.03 1.495 0 2 C0 1.34 0 0.68 0 0 Z " fill="#37BC7E" transform="translate(41,111)"/>
<path d="M0 0 C-0.99 0.495 -0.99 0.495 -2 1 C-1.67 1.66 -1.34 2.32 -1 3 C-2.98 3.66 -4.96 4.32 -7 5 C-7.33 3.68 -7.66 2.36 -8 1 C-4.93251126 -0.86240388 -3.40254489 -1.2151946 0 0 Z " fill="#1EBA70" transform="translate(44,81)"/>
<path d="M0 0 C2.9375 0.375 2.9375 0.375 6 1 C6.33 1.66 6.66 2.32 7 3 C6.01 3.99 5.02 4.98 4 6 C2 4.6875 2 4.6875 0 3 C0 2.01 0 1.02 0 0 Z " fill="#15BA6A" transform="translate(85,73)"/>
<path d="M0 0 C1.66611905 -0.042721 3.33382885 -0.04063832 5 0 C6 1 6 1 6.0625 3.5625 C6.041875 4.366875 6.02125 5.17125 6 6 C5.01 6.33 4.02 6.66 3 7 C3 5.35 3 3.7 3 2 C2.01 1.67 1.02 1.34 0 1 C0 0.67 0 0.34 0 0 Z " fill="#11B669" transform="translate(39,109)"/>
<path d="M0 0 C3.25543229 0.34879632 4.01873107 1.02133261 6.25 3.5625 C6.8275 4.366875 7.405 5.17125 8 6 C7.01 6.495 7.01 6.495 6 7 C5.01 6.34 4.02 5.68 3 5 C3 4.01 3 3.02 3 2 C1.35 2.33 -0.3 2.66 -2 3 C-1.34 2.01 -0.68 1.02 0 0 Z " fill="#21BC74" transform="translate(54,29)"/>
<path d="M0 0 C2.97 0 5.94 0 9 0 C9 0.66 9 1.32 9 2 C6.69 2 4.38 2 2 2 C1.67 2.99 1.34 3.98 1 5 C0.67 5 0.34 5 0 5 C0 3.35 0 1.7 0 0 Z " fill="#14AF69" transform="translate(20,103)"/>
<path d="M0 0 C-0.3125 1.875 -0.3125 1.875 -1 4 C-1.99 4.66 -2.98 5.32 -4 6 C-4.99 5.01 -5.98 4.02 -7 3 C-4.74624683 0.74624683 -3.20799182 0 0 0 Z " fill="#22BE75" transform="translate(75,47)"/>
<path d="M0 0 C1.32 1.32 2.64 2.64 4 4 C3.34 4 2.68 4 2 4 C2.33 5.32 2.66 6.64 3 8 C1.02 6.35 -0.96 4.7 -3 3 C-2.01 2.01 -1.02 1.02 0 0 Z " fill="#27BC77" transform="translate(46,55)"/>
<path d="M0 0 C3.465 1.485 3.465 1.485 7 3 C6.01 4.485 6.01 4.485 5 6 C2.525 5.01 2.525 5.01 0 4 C0 2.68 0 1.36 0 0 Z " fill="#31BF7B" transform="translate(35,105)"/>
<path d="M0 0 C3.3 0 6.6 0 10 0 C9.67 0.66 9.34 1.32 9 2 C5.44307323 2.85056945 3.50729422 3.16909807 0 2 C0 1.34 0 0.68 0 0 Z " fill="#02BB60" transform="translate(22,85)"/>
<path d="M0 0 C2 1.375 2 1.375 4 3 C4 3.66 4 4.32 4 5 C4.66 5.33 5.32 5.66 6 6 C4.68 6.33 3.36 6.66 2 7 C1.67 6.01 1.34 5.02 1 4 C0.34 3.67 -0.32 3.34 -1 3 C-0.67 2.01 -0.34 1.02 0 0 Z " fill="#F9E178" transform="translate(96,105)"/>
<path d="M0 0 C2.475 0.99 2.475 0.99 5 2 C4.67 3.32 4.34 4.64 4 6 C3.01 5.67 2.02 5.34 1 5 C0.67 3.35 0.34 1.7 0 0 Z " fill="#0DBA66" transform="translate(41,52)"/>
<path d="M0 0 C1.98 0 3.96 0 6 0 C6 0.99 6 1.98 6 3 C4.02 3 2.04 3 0 3 C0 2.01 0 1.02 0 0 Z " fill="#06B763" transform="translate(53,20)"/>
</svg>
